<svg xmlns="http://www.w3.org/2000/svg" xml:space="preserve" id="Capa_1" x="0" y="0" enable-background="new 0 0 60 60" version="1.1" viewBox="0 0 60 60"><path d="M41.5,2h-6V1c0-0.553-0.447-1-1-1h-9c-0.553,0-1,0.447-1,1v1h-6h-13v58h49V2H41.5z M52.5,38.586l-1,1V5h-9V4h10V38.586z M36.086,55H10.5V7h7v2v1h1h23h1V9V7h7v34.586L36.086,55z M49.5,44.414V55H38.914L49.5,44.414z M33.5,2v1v2h-7V3V2H33.5z M24.5,4v2 v1h1h9h1V6V4h5v1v3h-21V5V4H24.5z M7.5,4h10v1h-9v52h25.586l-1,1H7.5V4z M35.914,58l1-1H51.5V42.414l1-1V58H35.914z"/><path d="M16.5 18h9c.553 0 1-.447 1-1s-.447-1-1-1h-9c-.553 0-1 .447-1 1S15.947 18 16.5 18zM16.5 26h5c.553 0 1-.447 1-1s-.447-1-1-1h-5c-.553 0-1 .447-1 1S15.947 26 16.5 26zM38.5 24h-7c-.553 0-1 .447-1 1s.447 1 1 1h7c.553 0 1-.447 1-1S39.053 24 38.5 24zM25.79 24.29C25.6 24.479 25.5 24.729 25.5 25c0 .27.109.52.29.71C25.979 25.89 26.229 26 26.5 26c.27 0 .52-.101.71-.29.18-.19.29-.45.29-.71 0-.261-.11-.521-.29-.71C26.83 23.92 26.17 23.92 25.79 24.29zM44.21 24.29c-.37-.37-1.04-.37-1.42 0C42.6 24.479 42.5 24.729 42.5 25c0 .27.109.52.29.71C42.979 25.89 43.229 26 43.5 26c.27 0 .52-.11.71-.29.18-.19.29-.45.29-.71C44.5 24.739 44.39 24.479 44.21 24.29zM28.5 32h-7c-.553 0-1 .447-1 1s.447 1 1 1h7c.553 0 1-.447 1-1S29.053 32 28.5 32zM16.5 34c.27 0 .52-.11.71-.29.18-.19.29-.45.29-.71 0-.261-.11-.521-.29-.71-.37-.37-1.05-.37-1.42 0-.181.189-.29.439-.29.71 0 .27.109.52.29.71C15.979 33.89 16.229 34 16.5 34zM19.645 41.166c-2.19 1.14-2.927 3.321-3.196 5.582-.414-.347-.828-.693-1.242-1.04-.98-.821-2.402.586-1.414 1.415.935.783 1.871 1.567 2.806 2.351.658.551 1.677.203 1.707-.707.073-2.166.175-4.742 2.348-5.873C21.796 42.299 20.786 40.572 19.645 41.166zM26.295 45.155c-1.385.321-2.961 2.083-3.936.106-.569-1.154-2.295-.142-1.727 1.009.517 1.049 1.5 1.784 2.669 1.932.594.075 1.131-.009 1.688-.226.409-.159 1.937-1.308 2.267-.717.628 1.124 2.356.116 1.727-1.009C28.446 45.288 27.359 44.908 26.295 45.155z"/></svg>