<svg xmlns="http://www.w3.org/2000/svg" xml:space="preserve" id="Capa_1" x="0" y="0" enable-background="new 0 0 60 60" version="1.1" viewBox="0 0 60 60"><path d="M40.004.004H38h-7H1V17.01v20V54h4v5.868l4-2.666 4 2.666V54h18 7 2.004C42.207 54 44 52.207 44 50.004V37.01v-20V4C44 1.797 42.207.004 40.004.004zM3 2.004h28V17.01H3V2.004zM31 35.01H3v-16h28V35.01zM11 56.132l-2-1.334-2 1.334V54h4V56.132zM13 52H5 3V37.01h28V52H13zM33 52V37.01v-20V2.004h3V17.01v20V52H33zM38 19.01h4v16h-4V19.01zM42 50.004C42 51.104 41.104 52 40.004 52H38V37.01h4V50.004zM38 17.01V2.004h2.004C41.104 2.004 42 2.899 42 4v13.01H38zM56.015 0h-4.029C50.339 0 49 1.339 49 2.985V7v6 37.266l4 7V59c0 .553.447 1 1 1s1-.447 1-1v-1.734l4-7V13 7 2.985C59 1.339 57.661 0 56.015 0zM51 9h6v2h-6V9zM54 54.984 51.723 51h4.554L54 54.984zM57 49h-6V13h6V49zM51 7V2.985C51 2.442 51.442 2 51.985 2h4.029C56.558 2 57 2.442 57 2.985V7H51z"/></svg>