<svg xmlns="http://www.w3.org/2000/svg" width="512" height="512" viewBox="0 0 512 512"><path d="M326.1,231.9l-47.5,75.5a31,31,0,0,1-7,7,30.11,30.11,0,0,1-35-49l75.5-47.5a10.23,10.23,0,0,1,11.7,0A10.06,10.06,0,0,1,326.1,231.9Z"/><path fill="none" stroke="#000" stroke-linecap="round" stroke-linejoin="round" stroke-width="32" d="M256,64C132.3,64,32,164.2,32,287.9A223.18,223.18,0,0,0,88.3,436.4c1.1,1.2,2.1,2.4,3.2,3.5a25.19,25.19,0,0,0,37.1-.1,173.13,173.13,0,0,1,254.8,0,25.19,25.19,0,0,0,37.1.1l3.2-3.5A223.18,223.18,0,0,0,480,287.9C480,164.2,379.7,64,256,64Z"/><path fill="none" stroke="#000" stroke-linecap="round" stroke-miterlimit="10" stroke-width="32" d="M256 128 256 160"/><path fill="none" stroke="#000" stroke-linecap="round" stroke-miterlimit="10" stroke-width="32" d="M416 288 384 288"/><path fill="none" stroke="#000" stroke-linecap="round" stroke-miterlimit="10" stroke-width="32" d="M128 288 96 288"/><path fill="none" stroke="#000" stroke-linecap="round" stroke-miterlimit="10" stroke-width="32" d="M165.49 197.49 142.86 174.86"/><path fill="none" stroke="#000" stroke-linecap="round" stroke-miterlimit="10" stroke-width="32" d="M346.51 197.49 369.14 174.86"/></svg>